<svg xmlns="http://www.w3.org/2000/svg" width="83.801" height="18.08" viewBox="0 0 83.801 18.08"><g transform="translate(-18.9 -20.12)"><path d="M39.356,22.923H34.531a.2.2,0,0,1-.143-.061A9.047,9.047,0,0,0,19.54,25.707h6.9a.167.167,0,0,1,.158.22l-1.242,3.736a.6.6,0,0,1-.566.408H18.9A9.051,9.051,0,0,0,23.932,37.3l2.626-7.9a.6.6,0,0,1,.566-.408h4.046a.167.167,0,0,1,.158.22L28.339,38.2a9.045,9.045,0,0,0,8.607-9.035q0-.277-.017-.55a.2.2,0,0,1,.2-.211h.6a.288.288,0,0,0,.274-.2l1.631-4.9A.288.288,0,0,0,39.356,22.923ZM37.532,27.84H27.305a.167.167,0,0,1-.158-.22l1.242-3.736a.594.594,0,0,1,.566-.406h10.03Z"/><g transform="translate(41.809 25.97)"><g transform="translate(0 0)"><path d="M415.026,124.86l-.776,2.314h3.193l-2.153,6.456h3.086l2.153-6.456h3.187l.772-2.314Z" transform="translate(-414.25 -124.641)"/><path d="M572.4,121.078c-3.132.019-6.109,1.6-6.993,4.6-.747,2.535,1.217,4.505,4.348,4.566,3.4.066,6.155-1.536,6.993-4.633C577.41,123.162,575.532,121.06,572.4,121.078Zm1.327,4.606a3.065,3.065,0,0,1-3.276,2.17c-1.467-.028-2.387-.951-2.037-2.139a3.261,3.261,0,0,1,3.276-2.153C573.157,123.553,574.037,124.538,573.728,125.684Z" transform="translate(-556.499 -121.078)"/><path d="M757.661,124.79h-6.1l-2.964,8.774h3.123l.747-2.242a.134.134,0,0,1,.127-.092h3.688a3.909,3.909,0,0,0,3.908-3.908h0A2.531,2.531,0,0,0,757.661,124.79Zm-.261,3.086a.622.622,0,0,1-.053.257,1.179,1.179,0,0,1-1.075.694h-2.951l.556-1.654h2.874a.648.648,0,0,1,.648.648v.055Z" transform="translate(-729.226 -124.575)"/><path d="M937.632,124.79h-6.1l-2.964,8.774h3.123l.747-2.242a.134.134,0,0,1,.127-.092h3.688a3.909,3.909,0,0,0,3.908-3.908h0A2.531,2.531,0,0,0,937.632,124.79Zm-.261,3.086a.622.622,0,0,1-.053.257,1.179,1.179,0,0,1-1.075.694h-2.951l.556-1.654h2.874a.648.648,0,0,1,.648.648v.055Z" transform="translate(-898.767 -124.575)"/><path d="M1117.8,126.892l.684-2.032h-8.334l-2.935,8.764,2.739.006h5.591l.68-2.032h-5.219l.448-1.337h4.2l.686-2.032h-4.207l.447-1.337Z" transform="translate(-1067.065 -124.641)"/><path d="M1274.2,124.79h-6.211l-2.964,8.774h3.123l.778-2.334h1.494l1.363,2.334h3.243l-1.377-2.358a.088.088,0,0,1,.051-.129,4.023,4.023,0,0,0,2.919-3.868h0A2.419,2.419,0,0,0,1274.2,124.79Zm-.375,3.086a.622.622,0,0,1-.053.257,1.179,1.179,0,0,1-1.075.694h-2.951l.556-1.654h2.874a.648.648,0,0,1,.648.648v.055Z" transform="translate(-1215.721 -124.575)"/></g></g></g></svg>